<svg xmlns="http://www.w3.org/2000/svg" width="62" height="34" viewBox="0 0 62 34"><g><g><path fill="#ff9100" d="M58.278 16.463c2.103 1.058 3.433 2.345 3.433 4.84 0 2.045-1.19 3.348-3.487 4.69l-13.327 7.783V27.89l11.313-6.487c.1-.057.149-.115.149-.185.001-.08-.07-.148-.2-.214l-8.33-4.244c-1.83-.93-3.138-2.094-3.138-4.19 0-2.096 1.16-3.124 3.137-4.241l5.299-2.995c.113-.063.165-.109.165-.202 0-.082-.066-.147-.24-.147h-8.155V.194h12.076c2.586 0 4.2 1.038 4.35 2.885.162 2.012-.892 3.077-2.943 4.303l-7.932 4.74c-.104.062-.176.118-.173.214 0 .07.058.127.173.185l7.83 3.944zM28.66.197h4.894v12.468c0 2.494-1.049 3.69-3.096 3.69-1.598 0-2.876-1.158-3.945-2.79l-5.292-8.079c-.065-.1-.112-.168-.199-.168-.087 0-.144.058-.2.168l-3.995 7.732c-.947 1.832-1.997 3.242-4.444 3.242-2.047 0-3.422-1.305-4.644-3.345L0 .197h5.892l6.393 10.974c.053.092.116.144.185.144.08.001.148-.067.215-.194l4.291-8.08C17.898 1.31 18.924 0 21.021 0c2.247 0 3.114 1.146 4.344 3.04l2.946 4.54c.067.104.14.156.201.156.08 0 .148-.07.148-.22zm8.238 0h4.894v16.011h-4.894z"/></g></g></svg>